<svg width="31" height="32" viewBox="0 0 31 32" fill="none" xmlns="http://www.w3.org/2000/svg">
<circle cx="15.5" cy="15.7637" r="15.5" fill="#CC6678"/>
<path d="M23.375 9.20117H7.625C7.2769 9.20117 6.94306 9.33945 6.69692 9.58559C6.45078 9.83174 6.3125 10.1656 6.3125 10.5137V21.0137C6.3125 21.3618 6.45078 21.6956 6.69692 21.9417C6.94306 22.1879 7.2769 22.3262 7.625 22.3262H23.375C23.7231 22.3262 24.0569 22.1879 24.3031 21.9417C24.5492 21.6956 24.6875 21.3618 24.6875 21.0137V10.5137C24.6875 10.1656 24.5492 9.83174 24.3031 9.58559C24.0569 9.33945 23.7231 9.20117 23.375 9.20117ZM21.9312 10.5137L15.5 14.963L9.06875 10.5137H21.9312ZM7.625 21.0137V11.1109L15.1259 16.3018C15.2358 16.378 15.3663 16.4188 15.5 16.4188C15.6337 16.4188 15.7642 16.378 15.8741 16.3018L23.375 11.1109V21.0137H7.625Z" fill="white"/>
</svg>
