<svg width="31" height="32" viewBox="0 0 31 32" fill="none" xmlns="http://www.w3.org/2000/svg">
<circle cx="15.5" cy="15.7637" r="15.5" fill="#CC6678"/>
<path fill-rule="evenodd" clip-rule="evenodd" d="M11.5319 6.19642C12.5582 6.14917 12.8855 6.13867 15.5 6.13867C18.1145 6.13867 18.4418 6.15005 19.4673 6.19642C20.4928 6.2428 21.1927 6.40642 21.8052 6.64355C22.4466 6.88592 23.0285 7.2648 23.5098 7.7548C23.9998 8.23517 24.3778 8.81617 24.6193 9.45842C24.8573 10.0709 25.02 10.7709 25.0672 11.7947C25.1145 12.8228 25.125 13.15 25.125 15.7637C25.125 18.3782 25.1136 18.7054 25.0672 19.7318C25.0209 20.7555 24.8573 21.4555 24.6193 22.068C24.3777 22.7104 23.9991 23.2923 23.5098 23.7734C23.0285 24.2634 22.4466 24.6414 21.8052 24.8829C21.1927 25.1209 20.4927 25.2837 19.469 25.3309C18.4417 25.3782 18.1145 25.3887 15.5 25.3887C12.8855 25.3887 12.5582 25.3773 11.5319 25.3309C10.5081 25.2845 9.80813 25.1209 9.19563 24.8829C8.55331 24.6414 7.97134 24.2628 7.49025 23.7734C7.00058 23.2928 6.62165 22.7111 6.37988 22.0689C6.14275 21.4564 5.98 20.7564 5.93275 19.7327C5.8855 18.7045 5.875 18.3773 5.875 15.7637C5.875 13.1492 5.88637 12.8219 5.93275 11.7964C5.97912 10.7709 6.14275 10.0709 6.37988 9.45842C6.62201 8.81624 7.00123 8.23457 7.49112 7.75392C7.97154 7.26436 8.55291 6.88543 9.19475 6.64355C9.80725 6.40642 10.5073 6.24367 11.531 6.19642H11.5319ZM19.3894 7.92892C18.3744 7.88255 18.0699 7.87292 15.5 7.87292C12.9301 7.87292 12.6256 7.88255 11.6106 7.92892C10.6718 7.9718 10.1625 8.12842 9.823 8.26055C9.37413 8.43555 9.053 8.64292 8.71613 8.9798C8.39679 9.29047 8.15103 9.66867 7.99688 10.0867C7.86475 10.4262 7.70812 10.9354 7.66525 11.8743C7.61888 12.8893 7.60925 13.1938 7.60925 15.7637C7.60925 18.3335 7.61888 18.638 7.66525 19.653C7.70812 20.5919 7.86475 21.1012 7.99688 21.4407C8.15087 21.858 8.39675 22.2369 8.71613 22.5475C9.02675 22.8669 9.40563 23.1128 9.823 23.2668C10.1625 23.3989 10.6718 23.5555 11.6106 23.5984C12.6256 23.6448 12.9293 23.6544 15.5 23.6544C18.0708 23.6544 18.3744 23.6448 19.3894 23.5984C20.3282 23.5555 20.8375 23.3989 21.177 23.2668C21.6259 23.0918 21.947 22.8844 22.2839 22.5475C22.6033 22.2369 22.8491 21.858 23.0031 21.4407C23.1353 21.1012 23.2919 20.5919 23.3348 19.653C23.3811 18.638 23.3907 18.3335 23.3907 15.7637C23.3907 13.1938 23.3811 12.8893 23.3348 11.8743C23.2919 10.9354 23.1353 10.4262 23.0031 10.0867C22.8281 9.6378 22.6208 9.31667 22.2839 8.9798C21.9732 8.66048 21.595 8.41473 21.177 8.26055C20.8375 8.12842 20.3282 7.9718 19.3894 7.92892ZM14.2706 18.7308C14.9572 19.0166 15.7217 19.0552 16.4336 18.8399C17.1454 18.6247 17.7605 18.169 18.1737 17.5506C18.5868 16.9323 18.7725 16.1897 18.699 15.4496C18.6255 14.7096 18.2974 14.018 17.7706 13.493C17.4348 13.1575 17.0288 12.9005 16.5818 12.7407C16.1348 12.5808 15.6579 12.5221 15.1854 12.5687C14.713 12.6153 14.2568 12.7661 13.8496 13.0102C13.4424 13.2542 13.0944 13.5856 12.8306 13.9803C12.5669 14.375 12.3939 14.8233 12.3242 15.2929C12.2545 15.7625 12.2898 16.2417 12.4275 16.696C12.5652 17.1503 12.8019 17.5685 13.1206 17.9203C13.4393 18.2722 13.8321 18.549 14.2706 18.7308ZM12.0017 12.2654C12.4611 11.806 13.0065 11.4416 13.6068 11.193C14.207 10.9444 14.8503 10.8164 15.5 10.8164C16.1497 10.8164 16.793 10.9444 17.3932 11.193C17.9935 11.4416 18.5389 11.806 18.9983 12.2654C19.4576 12.7248 19.8221 13.2702 20.0707 13.8704C20.3193 14.4707 20.4473 15.114 20.4473 15.7637C20.4473 16.4134 20.3193 17.0567 20.0707 17.6569C19.8221 18.2571 19.4576 18.8025 18.9983 19.2619C18.0705 20.1897 16.8121 20.7109 15.5 20.7109C14.1879 20.7109 12.9295 20.1897 12.0017 19.2619C11.074 18.3341 10.5527 17.0758 10.5527 15.7637C10.5527 14.4516 11.074 13.1932 12.0017 12.2654ZM21.5445 11.5532C21.6583 11.4458 21.7495 11.3166 21.8125 11.1734C21.8756 11.0302 21.9092 10.8757 21.9115 10.7192C21.9138 10.5628 21.8846 10.4074 21.8258 10.2624C21.767 10.1174 21.6796 9.98562 21.569 9.87496C21.4583 9.76429 21.3266 9.67696 21.1815 9.61812C21.0365 9.55929 20.8812 9.53015 20.7247 9.53243C20.5682 9.53471 20.4138 9.56837 20.2705 9.63141C20.1273 9.69444 19.9981 9.78558 19.8907 9.89942C19.6819 10.1208 19.5676 10.4149 19.572 10.7192C19.5764 11.0236 19.6993 11.3142 19.9145 11.5294C20.1297 11.7446 20.4204 11.8675 20.7247 11.8719C21.029 11.8764 21.3231 11.762 21.5445 11.5532Z" fill="white"/>
</svg>
