<svg width="155" height="50" viewBox="0 0 155 50" fill="none" xmlns="http://www.w3.org/2000/svg">
<path d="M31.875 40.375H39.125V19.25H31.875V40.375ZM41.625 4.875H36.75V9.75H41.625V4.875ZM14.25 7.25H7.25V13.375H13.75C17.875 13.375 20.25 15.375 20.25 19.125C20.25 22.875 17.875 25 13.75 25H7.25V13.5H0V40.375H7.25V31.125H14.125C22.5 31.125 27.375 26.625 27.375 18.875C27.375 11.625 22.625 7.25 14.25 7.25ZM46.5 0H31.875V14.625H46.5V0ZM44.125 12.125H34.375V2.375H44.125V12.125ZM86.625 7.25H80V13.375H86.25C90.375 13.375 92.75 15.375 92.75 19.125C92.75 22.875 90.375 25 86.25 25H80V13.5H72.75V40.375H80V31.125H86.625C95 31.125 99.875 26.625 99.875 18.875C99.875 11.625 95 7.25 86.625 7.25ZM147.5 15L141.25 30.75L135 15H127.5L137.5 40.375L133.625 50H141.25L155 15H147.5ZM115 14.875C110.625 14.875 107.25 15.875 103.5 17.75L105.75 22.75C108.375 21.25 111 20.5 113.375 20.5C116.875 20.5 118.625 22 118.625 24.75V25.25H111.625C105.375 25.25 102 28.125 102 32.875C102 37.5 105.25 40.75 110.75 40.75C114.25 40.75 116.75 39.5 118.75 37.375V40.125H125.875V23.625C125.625 18.25 121.75 14.875 115 14.875ZM119.25 31.875C118.5 34 116.375 35.75 113.375 35.75C110.875 35.75 109.375 34.5 109.375 32.5C109.375 30.5 110.75 29.625 113.5 29.625H119.25V31.875ZM57.625 34.875C54.125 34.875 51.625 32.125 51.625 28C51.625 24 54.125 21.25 57.625 21.25C60.125 21.25 62 22.25 63.375 24L68.25 20.5C66 17.125 62.125 15.125 57.25 15.125C49.625 15 44.375 20.25 44.375 28C44.375 35.75 49.625 40.875 57.25 40.875C62.5 40.875 66.375 38.75 68.5 35.25L63.5 31.875C62.25 33.875 60.25 34.875 57.625 34.875Z" fill="#21C25E"/>
</svg>
