<svg width="144" height="50" viewBox="0 0 144 50" fill="none" xmlns="http://www.w3.org/2000/svg">
<path d="M58.0488 46.6865V18.0119C58.0488 12.736 62.3259 8.45916 67.6021 8.45916L76.0681 8.47165C81.3289 8.48216 85.5881 12.7498 85.5881 18.0106V24.1142C85.5881 29.3901 81.311 33.6674 76.0351 33.6674H64.0716" stroke="#939598" stroke-width="6.26444" stroke-miterlimit="10" stroke-linecap="round" stroke-linejoin="round"/>
<path d="M87.9541 8.45476H91.6266C93.7919 8.45476 95.5469 10.21 95.5469 12.3753V33.7954" stroke="#939598" stroke-width="6.26444" stroke-miterlimit="10" stroke-linecap="round" stroke-linejoin="round"/>
<path d="M94.7596 5.13681L93.0941 3.47116C92.6809 3.05809 92.6809 2.38797 93.0941 1.97468L94.7587 0.310344C95.1724 -0.103604 95.8434 -0.103604 96.2572 0.310344L97.9217 1.97468C98.335 2.38797 98.335 3.05809 97.9217 3.47116L96.2563 5.13681C95.843 5.5501 95.1729 5.5501 94.7596 5.13681Z" fill="#32BCAD"/>
<path d="M102.593 8.4362H106.235C108.108 8.4362 109.905 9.18038 111.23 10.5053L119.749 19.024C120.852 20.1278 122.642 20.1278 123.745 19.024L132.233 10.5364C133.558 9.21172 135.354 8.46754 137.228 8.46754H140.189" stroke="#939598" stroke-width="6.26444" stroke-miterlimit="10" stroke-linecap="round" stroke-linejoin="round"/>
<path d="M102.593 33.6084H106.235C108.108 33.6084 109.905 32.8642 111.23 31.5393L119.749 23.0204C120.852 21.9168 122.642 21.9168 123.745 23.0204L132.233 31.508C133.558 32.8329 135.354 33.5771 137.228 33.5771H140.189" stroke="#939598" stroke-width="6.26444" stroke-miterlimit="10" stroke-linecap="round" stroke-linejoin="round"/>
<path d="M36.335 39.0504C34.5069 39.0504 32.7878 38.3387 31.4954 37.0467L24.5071 30.0586C24.0167 29.5667 23.1614 29.5682 22.671 30.0586L15.6573 37.0723C14.3646 38.3641 12.6455 39.0759 10.8175 39.0759H9.44043L18.2909 47.9265C21.0551 50.6905 25.5366 50.6905 28.3008 47.9265L37.1769 39.0504H36.335Z" fill="#32BCAD"/>
<path d="M10.8173 14.3321C12.6453 14.3321 14.3644 15.0441 15.6569 16.3361L22.6705 23.3509C23.1756 23.856 24.0005 23.8582 24.5069 23.3502L31.4949 16.3616C32.7876 15.0695 34.5067 14.3578 36.3347 14.3578H37.1765L28.3006 5.48191C25.5364 2.71773 21.0548 2.71773 18.2907 5.48191L9.44043 14.3321H10.8173Z" fill="#32BCAD"/>
<path d="M44.5178 21.6995L39.154 16.3357C39.0359 16.3831 38.9081 16.4126 38.7731 16.4126H36.3346C35.0737 16.4126 33.8395 16.9239 32.9487 17.8153L25.9605 24.8036C25.3068 25.4575 24.4476 25.7849 23.589 25.7849C22.7298 25.7849 21.8712 25.4575 21.2173 24.8042L14.203 17.7899C13.312 16.8985 12.078 16.3872 10.8171 16.3872H7.81843C7.69068 16.3872 7.57103 16.357 7.45818 16.3145L2.07313 21.6995C-0.691045 24.4635 -0.691045 28.945 2.07313 31.7094L7.45796 37.0942C7.57081 37.0517 7.69068 37.0215 7.81843 37.0215H10.8171C12.078 37.0215 13.312 36.5102 14.203 35.6188L21.2166 28.6051C22.4843 27.3385 24.6941 27.3379 25.9605 28.6058L32.9487 35.5932C33.8395 36.4848 35.0737 36.9961 36.3346 36.9961H38.7731C38.9083 36.9961 39.0359 37.0254 39.1542 37.0728L44.5178 31.7094C47.2819 28.945 47.2819 24.4635 44.5178 21.6995Z" fill="#32BCAD"/>
<path d="M65.3285 44.2492C64.9327 44.2492 64.4719 44.3443 64.0163 44.4492V46.1969C64.3321 46.3121 64.6924 46.3673 65.0381 46.3673C65.9143 46.3673 66.33 46.0719 66.33 45.3004C66.33 44.5744 65.9894 44.2492 65.3285 44.2492ZM63.7207 47.4941V44.0386H63.9611L63.9863 44.1891C64.3919 44.0938 64.9527 43.9687 65.3533 43.9687C65.6791 43.9687 65.9894 44.0182 66.2497 44.2288C66.5504 44.4744 66.6455 44.8698 66.6455 45.3004C66.6455 45.7514 66.4952 46.1771 66.0847 46.4123C65.799 46.5725 65.4135 46.6375 65.068 46.6375C64.7123 46.6375 64.372 46.5821 64.0163 46.4774V47.4941H63.7207Z" fill="#939598"/>
<path d="M68.8463 44.2388C67.9697 44.2388 67.5792 44.5145 67.5792 45.2856C67.5792 46.0318 67.9649 46.3675 68.8463 46.3675C69.7176 46.3675 70.1083 46.0969 70.1083 45.3255C70.1083 44.5796 69.7228 44.2388 68.8463 44.2388ZM69.9728 46.3675C69.6825 46.5774 69.292 46.6377 68.8463 46.6377C68.3907 46.6377 68 46.5724 67.7142 46.3675C67.3938 46.1422 67.2637 45.7712 67.2637 45.3058C67.2637 44.8449 67.3938 44.4698 67.7142 44.2388C68 44.0337 68.3907 43.9688 68.8463 43.9688C69.297 43.9688 69.6825 44.0337 69.9728 44.2388C70.2987 44.4698 70.4236 44.8449 70.4236 45.3005C70.4236 45.7664 70.2934 46.1422 69.9728 46.3675Z" fill="#939598"/>
<path d="M74.1216 46.5676L73.1449 44.4696H73.1247L72.1632 46.5676H71.898L70.8564 44.0386H71.1816L72.0481 46.1616H72.0683L73.0097 44.0386H73.2801L74.2465 46.1616H74.2669L75.1132 44.0386H75.4285L74.3867 46.5676H74.1216Z" fill="#939598"/>
<path d="M77.3166 44.2343C76.5054 44.2343 76.2299 44.5947 76.1798 45.1158H78.4533C78.4285 44.5402 78.1329 44.2343 77.3166 44.2343ZM77.3068 46.6382C76.8207 46.6382 76.5054 46.5681 76.2549 46.3573C75.9593 46.102 75.8594 45.7318 75.8594 45.3063C75.8594 44.9004 75.9946 44.4701 76.3303 44.2244C76.6106 44.0292 76.9561 43.9691 77.3166 43.9691C77.6423 43.9691 78.0179 44.004 78.3282 44.2145C78.6937 44.4595 78.764 44.8906 78.764 45.381H76.1699C76.1798 45.9019 76.3502 46.3629 77.3315 46.3629C77.7974 46.3629 78.2331 46.2873 78.6389 46.2174V46.4828C78.2179 46.5582 77.7523 46.6382 77.3068 46.6382Z" fill="#939598"/>
<path d="M79.6123 46.5676V44.0386H79.8527L79.8779 44.1891C80.4135 44.0537 80.6642 43.9687 81.1346 43.9687H81.1699V44.2492H81.0998C80.704 44.2492 80.4639 44.3037 79.9079 44.4492V46.5676H79.6123Z" fill="#939598"/>
<path d="M82.886 44.2343C82.0747 44.2343 81.7993 44.5947 81.7491 45.1158H84.0226C83.9979 44.5402 83.7022 44.2343 82.886 44.2343ZM82.8761 46.6382C82.3901 46.6382 82.0747 46.5681 81.8243 46.3573C81.5286 46.102 81.4287 45.7318 81.4287 45.3063C81.4287 44.9004 81.5639 44.4701 81.8996 44.2244C82.1799 44.0292 82.5255 43.9691 82.886 43.9691C83.2116 43.9691 83.5872 44.004 83.8975 44.2145C84.263 44.4595 84.3334 44.8906 84.3334 45.381H81.7392C81.7491 45.9019 81.9196 46.3629 82.9009 46.3629C83.3667 46.3629 83.8024 46.2873 84.2082 46.2174V46.4828C83.7873 46.5582 83.3216 46.6382 82.8761 46.6382Z" fill="#939598"/>
<path d="M87.5706 44.4095C87.2553 44.294 86.8946 44.2388 86.5492 44.2388C85.6727 44.2388 85.257 44.5346 85.257 45.3058C85.257 46.0366 85.5975 46.357 86.2584 46.357C86.6542 46.357 87.115 46.2619 87.5706 46.1617V44.4095ZM87.6258 46.5678L87.6006 46.4172C87.1952 46.5123 86.6342 46.6377 86.2337 46.6377C85.9082 46.6377 85.5975 46.5928 85.3372 46.3771C85.0367 46.1315 84.9414 45.7364 84.9414 45.3058C84.9414 44.8552 85.0917 44.429 85.5024 44.1987C85.7879 44.0337 86.1734 43.9686 86.524 43.9686C86.8746 43.9686 87.2149 44.0289 87.5706 44.1288V42.972H87.8662V46.5678H87.6258Z" fill="#939598"/>
<path d="M92.1976 44.2493C91.8019 44.2493 91.341 44.3444 90.8855 44.4494V46.192C91.2061 46.3123 91.5615 46.3675 91.9073 46.3675C92.7834 46.3675 93.1991 46.0721 93.1991 45.3005C93.1991 44.5745 92.8586 44.2493 92.1976 44.2493ZM92.9537 46.4124C92.6681 46.5726 92.2827 46.6377 91.9371 46.6377C91.5615 46.6377 91.1861 46.5726 90.8053 46.4473L90.7904 46.5678H90.5898V42.9722H90.8855V44.1788C91.2911 44.0891 91.8369 43.9688 92.2224 43.9688C92.5483 43.9688 92.8586 44.0184 93.1189 44.229C93.4195 44.4746 93.5146 44.8699 93.5146 45.3005C93.5146 45.7515 93.3641 46.1773 92.9537 46.4124Z" fill="#939598"/>
<path d="M93.9075 47.539V47.264C94.0528 47.2789 94.1882 47.2892 94.2833 47.2892C94.6488 47.2892 94.869 47.1836 95.0744 46.7679L95.1695 46.5678L93.8477 44.0388H94.1882L95.32 46.222H95.34L96.4166 44.0388H96.7521L95.3299 46.8783C95.0696 47.3942 94.7888 47.5642 94.273 47.5642C94.158 47.5642 94.0328 47.5543 93.9075 47.539Z" fill="#939598"/>
<path d="M100.824 45.1253H99.8425V46.0119H100.829C101.505 46.0119 101.76 45.9363 101.76 45.5662C101.76 45.17 101.41 45.1253 100.824 45.1253ZM100.644 43.6877H99.8425V44.5893H100.649C101.315 44.5893 101.58 44.5093 101.58 44.1337C101.58 43.7333 101.245 43.6877 100.644 43.6877ZM102.166 46.3275C101.806 46.5578 101.37 46.5676 100.573 46.5676H99.0762V43.1373H100.538C101.225 43.1373 101.645 43.1471 101.996 43.3577C102.246 43.5081 102.346 43.7384 102.346 44.0386C102.346 44.3991 102.196 44.6395 101.806 44.7999V44.8194C102.246 44.9202 102.532 45.1457 102.532 45.6313C102.532 45.9615 102.411 46.1771 102.166 46.3275Z" fill="#939598"/>
<path d="M105.528 45.5061C105.232 45.4809 104.932 45.466 104.617 45.466C104.101 45.466 103.92 45.5712 103.92 45.8063C103.92 46.0267 104.071 46.1471 104.466 46.1471C104.797 46.1471 105.192 46.0721 105.528 45.9965V45.5061ZM105.678 46.5678L105.658 46.4172C105.227 46.5229 104.727 46.6377 104.286 46.6377C104.015 46.6377 103.725 46.6026 103.52 46.4521C103.33 46.3171 103.239 46.0966 103.239 45.8411C103.239 45.5558 103.365 45.2907 103.665 45.1555C103.93 45.0301 104.286 45.0203 104.611 45.0203C104.877 45.0203 105.232 45.0352 105.528 45.0553V45.01C105.528 44.6146 105.267 44.4845 104.556 44.4845C104.281 44.4845 103.945 44.4989 103.625 44.5292V44.0184C103.98 43.9888 104.381 43.9686 104.712 43.9686C105.152 43.9686 105.608 44.0037 105.888 44.2038C106.179 44.4095 106.234 44.6951 106.234 45.0702V46.5678H105.678Z" fill="#939598"/>
<path d="M109.535 46.5676V45.17C109.535 44.7096 109.3 44.5446 108.879 44.5446C108.569 44.5446 108.178 44.6243 107.848 44.7048V46.5676H107.142V44.0386H107.717L107.742 44.1985C108.188 44.0839 108.684 43.9687 109.095 43.9687C109.405 43.9687 109.721 44.0134 109.961 44.2288C110.161 44.4094 110.236 44.6592 110.236 45.0201V46.5676H109.535Z" fill="#939598"/>
<path d="M112.231 46.6377C111.905 46.6377 111.55 46.5928 111.289 46.3723C110.979 46.1218 110.889 45.7265 110.889 45.3003C110.889 44.8999 111.019 44.4641 111.405 44.2191C111.72 44.0133 112.111 43.9686 112.516 43.9686C112.807 43.9686 113.092 43.9888 113.408 44.0184V44.5594C113.152 44.5346 112.847 44.5145 112.601 44.5145C111.93 44.5145 111.615 44.7249 111.615 45.3058C111.615 45.8517 111.85 46.0868 112.401 46.0868C112.721 46.0868 113.097 46.0267 113.463 45.9568V46.4775C113.067 46.5579 112.636 46.6377 112.231 46.6377Z" fill="#939598"/>
<path d="M115.549 44.4994C114.878 44.4994 114.582 44.7102 114.582 45.2861C114.582 45.862 114.873 46.1077 115.549 46.1077C116.215 46.1077 116.506 45.9019 116.506 45.3258C116.506 44.7501 116.22 44.4994 115.549 44.4994ZM116.761 46.3728C116.451 46.5827 116.045 46.6382 115.549 46.6382C115.043 46.6382 114.638 46.5777 114.332 46.3728C113.982 46.1425 113.856 45.7619 113.856 45.3063C113.856 44.8503 113.982 44.4646 114.332 44.2343C114.638 44.0292 115.043 43.9691 115.549 43.9691C116.05 43.9691 116.451 44.0292 116.761 44.2343C117.111 44.4646 117.232 44.8503 117.232 45.3008C117.232 45.7568 117.107 46.1425 116.761 46.3728Z" fill="#939598"/>
<path d="M121.309 46.6377C120.883 46.6377 120.422 46.5678 120.077 46.282C119.666 45.9413 119.541 45.4158 119.541 44.8498C119.541 44.3442 119.701 43.7433 120.237 43.3925C120.652 43.1225 121.168 43.0673 121.689 43.0673C122.07 43.0673 122.46 43.0923 122.886 43.1274V43.7433C122.521 43.7131 122.07 43.6879 121.719 43.6879C120.743 43.6879 120.327 44.0587 120.327 44.8498C120.327 45.6564 120.713 46.0169 121.434 46.0169C121.904 46.0169 122.43 45.9216 122.961 45.8113V46.4223C122.43 46.5277 121.874 46.6377 121.309 46.6377Z" fill="#939598"/>
<path d="M125.036 44.4192C124.45 44.4192 124.224 44.63 124.179 45.0154H125.882C125.862 44.6048 125.621 44.4192 125.036 44.4192ZM124.931 46.6377C124.515 46.6377 124.139 46.5877 123.859 46.357C123.559 46.1072 123.453 45.7313 123.453 45.3003C123.453 44.9148 123.578 44.4845 123.929 44.2338C124.239 44.0133 124.635 43.9686 125.036 43.9686C125.396 43.9686 125.822 44.0085 126.132 44.2239C126.538 44.5094 126.573 44.9503 126.578 45.471H124.174C124.189 45.8567 124.395 46.1072 125.106 46.1072C125.547 46.1072 126.037 46.0421 126.453 45.9768V46.4725C125.967 46.5529 125.436 46.6377 124.931 46.6377Z" fill="#939598"/>
<path d="M129.72 46.5676V45.17C129.72 44.7096 129.485 44.5446 129.064 44.5446C128.753 44.5446 128.363 44.6243 128.032 44.7048V46.5676H127.326V44.0386H127.902L127.927 44.1985C128.373 44.0839 128.868 43.9687 129.279 43.9687C129.59 43.9687 129.905 44.0134 130.146 44.2288C130.346 44.4094 130.421 44.6592 130.421 45.0201V46.5676H129.72Z" fill="#939598"/>
<path d="M132.431 46.6377C132.09 46.6377 131.779 46.5424 131.609 46.277C131.484 46.0966 131.424 45.8517 131.424 45.5109V44.5642H130.913V44.0387H131.424L131.499 43.2724H132.125V44.0387H133.122V44.5642H132.125V45.3759C132.125 45.5712 132.14 45.7364 132.195 45.8567C132.27 46.0267 132.435 46.0918 132.656 46.0918C132.821 46.0918 133.022 46.0666 133.161 46.0421V46.5474C132.931 46.5928 132.666 46.6377 132.431 46.6377Z" fill="#939598"/>
<path d="M133.811 46.5676V44.0386H134.386L134.412 44.1985C134.878 44.0686 135.223 43.9687 135.664 43.9687C135.684 43.9687 135.714 43.9687 135.754 43.9733V44.5744C135.673 44.5695 135.578 44.5695 135.508 44.5695C135.163 44.5695 134.902 44.6094 134.517 44.6999V46.5676H133.811Z" fill="#939598"/>
<path d="M138.321 45.5061C138.025 45.4809 137.725 45.466 137.409 45.466C136.894 45.466 136.713 45.5712 136.713 45.8063C136.713 46.0267 136.864 46.1471 137.259 46.1471C137.59 46.1471 137.985 46.0721 138.321 45.9965V45.5061ZM138.471 46.5678L138.451 46.4172C138.02 46.5229 137.52 46.6377 137.079 46.6377C136.808 46.6377 136.518 46.6026 136.313 46.4521C136.123 46.3171 136.032 46.0966 136.032 45.8411C136.032 45.5558 136.157 45.2907 136.458 45.1555C136.723 45.0301 137.079 45.0203 137.404 45.0203C137.67 45.0203 138.025 45.0352 138.321 45.0553V45.01C138.321 44.6146 138.06 44.4845 137.349 44.4845C137.074 44.4845 136.738 44.4989 136.418 44.5292V44.0184C136.773 43.9888 137.174 43.9686 137.505 43.9686C137.945 43.9686 138.401 44.0037 138.681 44.2038C138.972 44.4095 139.027 44.6951 139.027 45.0702V46.5678H138.471Z" fill="#939598"/>
<path d="M139.935 42.972H140.641V46.5676H139.935V42.972Z" fill="#939598"/>
</svg>
