<?xml version="1.0" standalone="no"?>
<!DOCTYPE svg PUBLIC "-//W3C//DTD SVG 20010904//EN"
 "http://www.w3.org/TR/2001/REC-SVG-20010904/DTD/svg10.dtd">
<svg version="1.0" xmlns="http://www.w3.org/2000/svg"
 width="359.000000pt" height="336.000000pt" viewBox="0 0 359.000000 336.000000"
 preserveAspectRatio="xMidYMid meet">

<g transform="translate(0.000000,336.000000) scale(0.100000,-0.100000)"
fill="#000000" stroke="none">
<path d="M410 2870 l0 -220 220 0 220 0 0 220 0 220 -220 0 -220 0 0 -220z
m380 -5 l0 -155 -155 0 -155 0 0 155 0 155 155 0 155 0 0 -155z"/>
<path d="M540 2865 l0 -95 95 0 95 0 0 95 0 95 -95 0 -95 0 0 -95z"/>
<path d="M1100 3055 l0 -35 -65 0 -65 0 0 -30 c0 -28 3 -30 35 -30 l35 0 0
-60 0 -60 -35 0 c-33 0 -35 -2 -35 -35 0 -32 -2 -35 -30 -35 l-30 0 0 -60 0
-60 30 0 c27 0 30 -3 30 -30 0 -27 -3 -30 -30 -30 -27 0 -30 -3 -30 -30 0 -27
-3 -30 -30 -30 -27 0 -30 3 -30 30 l0 30 -60 0 -60 0 0 -30 c0 -28 -3 -30 -35
-30 -32 0 -35 2 -35 30 0 27 -3 30 -30 30 -27 0 -30 -3 -30 -30 0 -27 -3 -30
-30 -30 -28 0 -30 -3 -30 -35 0 -32 -2 -35 -30 -35 l-30 0 0 65 0 65 -35 0
-35 0 0 -65 0 -65 35 0 c32 0 35 -2 35 -30 0 -28 -3 -30 -35 -30 -32 0 -35 -2
-35 -30 0 -28 3 -30 35 -30 32 0 35 2 35 30 0 27 3 30 30 30 l30 0 0 -60 0
-60 -30 0 -30 0 0 -95 0 -95 30 0 c27 0 30 -3 30 -30 l0 -30 -65 0 -65 0 0
-30 c0 -28 3 -30 35 -30 33 0 35 -2 35 -35 0 -33 -2 -35 -35 -35 -32 0 -35 -2
-35 -30 0 -28 3 -30 35 -30 32 0 35 2 35 30 0 27 3 30 30 30 l30 0 0 -60 0
-60 -30 0 c-27 0 -30 -3 -30 -30 0 -28 -3 -30 -35 -30 l-35 0 0 -65 0 -65 65
0 65 0 0 30 c0 27 -3 30 -30 30 -28 0 -30 3 -30 35 0 32 2 35 30 35 27 0 30 3
30 30 0 27 3 30 30 30 27 0 30 -3 30 -30 0 -27 3 -30 30 -30 28 0 30 -3 30
-35 0 -32 -2 -35 -30 -35 l-30 0 0 -60 0 -60 -60 0 -60 0 0 -30 c0 -27 3 -30
30 -30 l30 0 0 -65 0 -65 30 0 30 0 0 95 0 95 30 0 30 0 0 -60 0 -60 35 0 c32
0 35 2 35 30 0 27 3 30 30 30 27 0 30 -3 30 -30 0 -27 3 -30 30 -30 28 0 30
-3 30 -35 l0 -35 -60 0 -60 0 0 -60 0 -60 30 0 c27 0 30 -3 30 -30 0 -27 3
-30 30 -30 28 0 30 -3 30 -35 l0 -35 -60 0 -60 0 0 -30 0 -30 -95 0 -95 0 0
30 c0 27 -3 30 -30 30 l-30 0 0 -60 0 -60 90 0 90 0 0 -30 0 -30 -90 0 -90 0
0 -30 c0 -28 -3 -30 -35 -30 -33 0 -35 -2 -35 -35 0 -33 2 -35 35 -35 33 0 35
2 35 35 l0 35 60 0 60 0 0 -35 0 -35 65 0 65 0 0 95 0 95 30 0 c27 0 30 -3 30
-30 0 -27 3 -30 30 -30 27 0 30 -3 30 -30 0 -27 -3 -30 -30 -30 -28 0 -30 -3
-30 -35 0 -32 2 -35 30 -35 28 0 30 3 30 35 0 32 2 35 30 35 l30 0 0 -65 0
-65 30 0 c27 0 30 -3 30 -30 0 -27 -3 -30 -30 -30 -27 0 -30 -3 -30 -30 0 -27
3 -30 30 -30 27 0 30 3 30 30 0 28 3 30 35 30 l35 0 0 -65 0 -65 -65 0 -65 0
0 -30 c0 -27 3 -30 30 -30 l30 0 0 -60 0 -60 -30 0 c-27 0 -30 -3 -30 -30 l0
-30 125 0 125 0 0 30 c0 27 3 30 30 30 27 0 30 -3 30 -30 l0 -30 95 0 95 0 0
30 c0 27 3 30 30 30 27 0 30 -3 30 -30 0 -27 3 -30 30 -30 l30 0 0 90 0 90
-30 0 c-27 0 -30 3 -30 30 l0 30 -60 0 -60 0 0 -30 c0 -27 -3 -30 -30 -30
l-30 0 0 65 0 65 30 0 c27 0 30 3 30 30 0 27 3 30 30 30 27 0 30 -3 30 -30 l0
-30 60 0 60 0 0 30 0 30 65 0 65 0 0 -30 c0 -27 -3 -30 -30 -30 l-30 0 0 -95
0 -95 30 0 c27 0 30 -3 30 -30 0 -27 3 -30 30 -30 27 0 30 -3 30 -30 0 -27 3
-30 30 -30 27 0 30 3 30 30 0 28 3 30 35 30 32 0 35 -2 35 -30 0 -27 3 -30 30
-30 27 0 30 3 30 30 0 27 3 30 30 30 27 0 30 3 30 30 l0 30 -60 0 -60 0 0 30
c0 28 -3 30 -35 30 -32 0 -35 2 -35 30 l0 30 95 0 95 0 0 -30 c0 -27 3 -30 30
-30 27 0 30 -3 30 -30 0 -27 3 -30 30 -30 27 0 30 3 30 30 0 27 -3 30 -30 30
-27 0 -30 3 -30 30 0 27 3 30 30 30 28 0 30 3 30 35 0 32 -2 35 -30 35 l-30 0
0 60 0 60 -30 0 c-27 0 -30 3 -30 30 l0 30 60 0 60 0 0 -30 0 -30 65 0 65 0 0
30 c0 27 -3 30 -30 30 -28 0 -30 3 -30 35 0 33 -2 35 -35 35 -32 0 -35 2 -35
30 l0 30 95 0 95 0 0 -155 0 -155 -30 0 c-28 0 -30 -3 -30 -35 0 -32 -2 -35
-30 -35 -27 0 -30 -3 -30 -30 0 -27 3 -30 30 -30 27 0 30 3 30 30 l0 30 60 0
60 0 0 -90 0 -90 -30 0 c-27 0 -30 3 -30 30 l0 30 -60 0 -60 0 0 -30 0 -30 60
0 60 0 0 -30 c0 -27 3 -30 30 -30 27 0 30 3 30 30 l0 30 65 0 65 0 0 30 c0 27
3 30 30 30 l30 0 0 -60 0 -60 30 0 c27 0 30 3 30 30 0 27 3 30 30 30 27 0 30
3 30 30 l0 30 -60 0 -60 0 0 60 0 60 30 0 c28 0 30 3 30 35 0 32 2 35 30 35
28 0 30 -3 30 -35 0 -33 2 -35 35 -35 32 0 35 -2 35 -30 0 -27 3 -30 30 -30
27 0 30 3 30 30 l0 30 95 0 95 0 0 35 c0 32 2 35 30 35 28 0 30 -3 30 -35 0
-32 2 -35 30 -35 27 0 30 -3 30 -30 0 -27 -3 -30 -30 -30 -27 0 -30 -3 -30
-30 l0 -30 -65 0 -65 0 0 30 c0 27 -3 30 -30 30 l-30 0 0 -90 0 -90 95 0 95 0
0 60 0 60 30 0 c27 0 30 -3 30 -30 0 -27 3 -30 30 -30 27 0 30 3 30 30 0 27 3
30 30 30 l30 0 0 95 0 95 -90 0 -90 0 0 30 0 30 60 0 60 0 0 30 c0 27 3 30 30
30 l30 0 0 65 0 65 -30 0 c-27 0 -30 3 -30 30 l0 30 -60 0 -60 0 0 -30 c0 -27
3 -30 30 -30 28 0 30 -3 30 -35 0 -32 2 -35 30 -35 27 0 30 -3 30 -30 l0 -30
-60 0 -60 0 0 -30 c0 -27 -3 -30 -30 -30 l-30 0 0 95 0 95 -65 0 -65 0 0 60 0
60 -30 0 c-27 0 -30 -3 -30 -30 l0 -30 -65 0 -65 0 0 60 0 60 125 0 125 0 0
-60 0 -60 35 0 35 0 0 60 0 60 -35 0 c-32 0 -35 2 -35 30 l0 30 65 0 65 0 0
-30 c0 -27 3 -30 30 -30 27 0 30 -3 30 -30 0 -27 3 -30 30 -30 l30 0 0 60 0
60 -30 0 c-28 0 -30 3 -30 35 0 32 2 35 30 35 27 0 30 3 30 30 0 27 3 30 30
30 l30 0 0 125 0 125 -30 0 -30 0 0 -65 0 -65 -60 0 -60 0 0 95 0 95 -30 0
-30 0 0 60 0 60 30 0 30 0 0 65 0 65 30 0 30 0 0 -65 0 -65 30 0 c27 0 30 -3
30 -30 0 -27 -3 -30 -30 -30 -27 0 -30 -3 -30 -30 l0 -30 60 0 60 0 0 95 0 95
-30 0 c-27 0 -30 3 -30 30 0 27 -3 30 -30 30 l-30 0 0 60 0 60 30 0 c27 0 30
-3 30 -30 0 -27 3 -30 30 -30 27 0 30 3 30 30 0 27 -3 30 -30 30 -28 0 -30 3
-30 35 0 32 2 35 30 35 27 0 30 3 30 30 0 27 -3 30 -30 30 -27 0 -30 3 -30 30
0 27 3 30 30 30 l30 0 0 185 0 185 -30 0 c-28 0 -30 3 -30 35 0 32 -2 35 -30
35 -28 0 -30 -3 -30 -35 0 -32 -2 -35 -30 -35 -27 0 -30 -3 -30 -30 0 -27 3
-30 30 -30 27 0 30 -3 30 -30 0 -27 3 -30 30 -30 l30 0 0 -65 0 -65 -30 0
c-28 0 -30 3 -30 35 0 32 -2 35 -30 35 -27 0 -30 3 -30 30 0 27 -3 30 -30 30
-27 0 -30 3 -30 30 0 28 -3 30 -35 30 -32 0 -35 2 -35 30 0 28 3 30 35 30 33
0 35 2 35 35 0 33 -2 35 -35 35 -32 0 -35 2 -35 30 0 27 -3 30 -30 30 l-30 0
0 -65 0 -65 -30 0 -30 0 0 65 0 65 -65 0 -65 0 0 -155 0 -155 35 0 c33 0 35
-2 35 -35 l0 -35 -65 0 -65 0 0 65 0 65 -30 0 -30 0 0 60 0 60 30 0 c28 0 30
3 30 35 0 32 -2 35 -30 35 -27 0 -30 3 -30 30 0 27 3 30 30 30 l30 0 0 60 0
60 -30 0 c-27 0 -30 3 -30 30 l0 30 95 0 95 0 0 65 0 65 -35 0 -35 0 0 60 0
60 35 0 c33 0 35 2 35 35 0 33 -2 35 -35 35 -33 0 -35 -2 -35 -35 0 -32 -2
-35 -30 -35 l-30 0 0 -90 0 -90 -30 0 -30 0 0 90 0 90 -30 0 c-28 0 -30 3 -30
35 l0 35 -155 0 -155 0 0 -35 c0 -33 -2 -35 -35 -35 -33 0 -35 2 -35 35 0 32
-2 35 -30 35 l-30 0 0 -65 0 -65 65 0 65 0 0 -30 0 -30 60 0 60 0 0 30 c0 27
3 30 30 30 27 0 30 3 30 30 l0 30 65 0 65 0 0 -125 0 -125 -30 0 -30 0 0 65 0
65 -35 0 -35 0 0 -65 0 -65 -30 0 c-28 0 -30 3 -30 35 0 32 -2 35 -30 35 -28
0 -30 -3 -30 -35 0 -32 2 -35 30 -35 l30 0 0 -60 0 -60 -30 0 c-27 0 -30 3
-30 30 0 27 -3 30 -30 30 -27 0 -30 -3 -30 -30 0 -28 -3 -30 -35 -30 l-35 0 0
95 0 95 -90 0 -90 0 0 30 c0 27 3 30 30 30 27 0 30 3 30 30 l0 30 -60 0 -60 0
0 -30 c0 -28 -3 -30 -35 -30 l-35 0 0 60 0 60 -30 0 c-28 0 -30 3 -30 35 l0
35 -60 0 -60 0 0 -35 0 -35 -95 0 -95 0 0 35 c0 32 -2 35 -30 35 -28 0 -30 -3
-30 -35 0 -32 2 -35 30 -35 l30 0 0 -60 0 -60 -30 0 c-27 0 -30 3 -30 30 0 27
-3 30 -30 30 -27 0 -30 -3 -30 -30 0 -28 -3 -30 -35 -30 -32 0 -35 -2 -35 -30
0 -28 3 -30 35 -30 33 0 35 -2 35 -35 0 -33 -2 -35 -35 -35 -32 0 -35 -2 -35
-30 0 -27 -3 -30 -30 -30 -27 0 -30 -3 -30 -30 0 -27 3 -30 30 -30 27 0 30 -3
30 -30 0 -27 -3 -30 -30 -30 -27 0 -30 -3 -30 -30 l0 -30 -60 0 -60 0 0 30 c0
27 3 30 30 30 l30 0 0 90 0 90 -30 0 c-28 0 -30 3 -30 35 l0 35 60 0 60 0 0
60 0 60 30 0 c27 0 30 3 30 30 0 28 3 30 35 30 33 0 35 2 35 35 l0 35 -95 0
-95 0 0 -35z m560 -65 c0 -27 3 -30 30 -30 27 0 30 -3 30 -30 l0 -30 -60 0
-60 0 0 -65 0 -65 30 0 30 0 0 -60 0 -60 -30 0 -30 0 0 60 0 60 -65 0 -65 0 0
65 0 65 65 0 65 0 0 60 0 60 30 0 c27 0 30 -3 30 -30z m620 0 l0 -30 -60 0
-60 0 0 30 0 30 60 0 60 0 0 -30z m-930 -120 c0 -27 -3 -30 -30 -30 -27 0 -30
3 -30 30 0 27 3 30 30 30 27 0 30 -3 30 -30z m-310 -160 l0 -60 -35 0 -35 0 0
60 0 60 35 0 35 0 0 -60z m310 30 c0 -27 3 -30 30 -30 27 0 30 -3 30 -30 0
-27 3 -30 30 -30 27 0 30 3 30 30 0 27 3 30 30 30 27 0 30 -3 30 -30 0 -27 -3
-30 -30 -30 -27 0 -30 -3 -30 -30 l0 -30 65 0 65 0 0 -30 0 -30 245 0 245 0 0
30 0 30 -60 0 -60 0 0 90 0 90 30 0 30 0 0 -60 0 -60 30 0 c27 0 30 -3 30 -30
l0 -30 65 0 65 0 0 -30 0 -30 60 0 60 0 0 30 c0 27 -3 30 -30 30 -27 0 -30 3
-30 30 0 27 3 30 30 30 27 0 30 3 30 30 0 28 3 30 35 30 l35 0 0 -60 0 -60 30
0 c27 0 30 -3 30 -30 l0 -30 -65 0 -65 0 0 -35 0 -35 65 0 65 0 0 -60 0 -60
30 0 30 0 0 -65 0 -65 30 0 c27 0 30 -3 30 -30 l0 -30 65 0 65 0 0 30 c0 27 3
30 30 30 27 0 30 -3 30 -30 0 -27 3 -30 30 -30 27 0 30 3 30 30 0 27 3 30 30
30 l30 0 0 65 0 65 35 0 c32 0 35 -2 35 -30 0 -27 3 -30 30 -30 28 0 30 -3 30
-35 0 -32 2 -35 30 -35 l30 0 0 -60 0 -60 -30 0 c-27 0 -30 -3 -30 -30 l0 -30
60 0 60 0 0 -30 0 -30 -60 0 -60 0 0 -95 0 -95 -30 0 -30 0 0 60 0 60 -35 0
c-32 0 -35 -2 -35 -30 0 -27 -3 -30 -30 -30 -27 0 -30 3 -30 30 0 27 3 30 30
30 28 0 30 3 30 35 l0 35 65 0 65 0 0 30 c0 27 -3 30 -30 30 l-30 0 0 60 0 60
30 0 c27 0 30 3 30 30 l0 30 -65 0 -65 0 0 -30 c0 -27 -3 -30 -30 -30 l-30 0
0 -90 0 -90 -30 0 -30 0 0 -65 0 -65 -65 0 -65 0 0 65 0 65 -60 0 -60 0 0 -65
0 -65 30 0 c27 0 30 -3 30 -30 0 -27 -3 -30 -30 -30 l-30 0 0 -65 0 -65 30 0
c27 0 30 -3 30 -30 0 -27 3 -30 30 -30 27 0 30 -3 30 -30 l0 -30 125 0 125 0
0 -30 c0 -28 3 -30 35 -30 32 0 35 -2 35 -30 l0 -30 -65 0 -65 0 0 30 0 30
-95 0 -95 0 0 -30 c0 -28 3 -30 35 -30 33 0 35 -2 35 -35 0 -32 2 -35 30 -35
27 0 30 -3 30 -30 0 -27 3 -30 30 -30 27 0 30 -3 30 -30 0 -27 -3 -30 -30 -30
l-30 0 0 -65 0 -65 -65 0 -65 0 0 -30 c0 -27 -3 -30 -30 -30 -27 0 -30 3 -30
30 0 27 3 30 30 30 28 0 30 3 30 35 0 32 -2 35 -30 35 -27 0 -30 3 -30 30 0
27 -3 30 -30 30 -27 0 -30 3 -30 30 0 27 -3 30 -30 30 l-30 0 0 -60 0 -60 -65
0 -65 0 0 -65 0 -65 35 0 c32 0 35 2 35 30 l0 30 60 0 60 0 0 -30 0 -30 -60 0
-60 0 0 -30 0 -30 60 0 60 0 0 -30 c0 -27 3 -30 30 -30 27 0 30 -3 30 -30 0
-27 3 -30 30 -30 28 0 30 -3 30 -35 0 -32 -2 -35 -30 -35 -28 0 -30 3 -30 35
0 32 -2 35 -30 35 l-30 0 0 -95 0 -95 30 0 c27 0 30 -3 30 -30 0 -27 -3 -30
-30 -30 -27 0 -30 3 -30 30 0 27 -3 30 -30 30 l-30 0 0 -65 0 -65 -65 0 -65 0
0 160 0 160 65 0 65 0 0 30 c0 27 -3 30 -30 30 -27 0 -30 3 -30 30 l0 30 -65
0 -65 0 0 30 0 30 -185 0 -185 0 0 -30 c0 -27 3 -30 30 -30 27 0 30 -3 30 -30
l0 -30 -60 0 -60 0 0 -30 0 -30 -125 0 -125 0 0 -35 c0 -32 2 -35 30 -35 27 0
30 -3 30 -30 l0 -30 -65 0 -65 0 0 30 c0 27 -3 30 -30 30 l-30 0 0 -60 0 -60
-30 0 c-27 0 -30 3 -30 30 l0 30 -95 0 -95 0 0 -30 c0 -27 -3 -30 -30 -30 -27
0 -30 -3 -30 -30 0 -27 3 -30 30 -30 28 0 30 -3 30 -35 l0 -35 -60 0 -60 0 0
-30 c0 -27 -3 -30 -30 -30 -27 0 -30 3 -30 30 0 27 3 30 30 30 l30 0 0 65 0
65 -30 0 c-27 0 -30 3 -30 30 0 28 -3 30 -35 30 l-35 0 0 65 0 65 -30 0 c-27
0 -30 3 -30 30 0 27 -3 30 -30 30 -27 0 -30 3 -30 30 0 27 -3 30 -30 30 -27 0
-30 3 -30 30 0 27 3 30 30 30 27 0 30 -3 30 -30 0 -27 3 -30 30 -30 27 0 30 3
30 30 0 27 3 30 30 30 27 0 30 3 30 30 0 28 3 30 35 30 32 0 35 -2 35 -30 0
-28 -3 -30 -35 -30 l-35 0 0 -60 0 -60 35 0 c32 0 35 2 35 30 0 27 3 30 30 30
27 0 30 3 30 30 0 27 3 30 30 30 27 0 30 -3 30 -30 0 -27 -3 -30 -30 -30 -27
0 -30 -3 -30 -30 0 -27 -3 -30 -30 -30 l-30 0 0 -95 0 -95 30 0 c27 0 30 -3
30 -30 0 -27 3 -30 30 -30 27 0 30 3 30 30 0 27 3 30 30 30 27 0 30 3 30 30 0
27 -3 30 -30 30 -28 0 -30 3 -30 35 0 32 2 35 30 35 28 0 30 -3 30 -35 0 -33
2 -35 35 -35 33 0 35 2 35 35 l0 35 90 0 90 0 0 60 0 60 -30 0 c-27 0 -30 -3
-30 -30 l0 -30 -60 0 -60 0 0 30 c0 28 -3 30 -35 30 l-35 0 0 60 0 60 35 0 35
0 0 -60 0 -60 30 0 c27 0 30 3 30 30 0 27 3 30 30 30 27 0 30 3 30 30 0 27 -3
30 -30 30 -28 0 -30 3 -30 35 0 32 -2 35 -30 35 l-30 0 0 60 0 60 -35 0 c-32
0 -35 -2 -35 -30 l0 -30 -90 0 -90 0 0 -30 c0 -28 -3 -30 -35 -30 -32 0 -35 2
-35 30 0 27 -3 30 -30 30 -27 0 -30 3 -30 30 0 27 -3 30 -30 30 -27 0 -30 -3
-30 -30 0 -27 -3 -30 -30 -30 -27 0 -30 3 -30 30 0 27 3 30 30 30 27 0 30 3
30 30 0 27 3 30 30 30 27 0 30 -3 30 -30 l0 -30 95 0 95 0 0 95 0 95 -30 0
-30 0 0 -65 0 -65 -35 0 c-33 0 -35 2 -35 35 0 32 -2 35 -30 35 -27 0 -30 3
-30 30 l0 30 -60 0 -60 0 0 30 0 30 90 0 90 0 0 30 0 30 65 0 65 0 0 30 c0 27
3 30 30 30 28 0 30 3 30 35 0 32 2 35 30 35 28 0 30 -3 30 -35 0 -32 -2 -35
-30 -35 -27 0 -30 -3 -30 -30 0 -27 -3 -30 -30 -30 l-30 0 0 -60 0 -60 30 0
c27 0 30 3 30 30 0 27 3 30 30 30 l30 0 0 -60 0 -60 -30 0 -30 0 0 -65 0 -65
30 0 c27 0 30 3 30 30 0 28 3 30 35 30 32 0 35 -2 35 -30 0 -27 3 -30 30 -30
27 0 30 -3 30 -30 0 -27 3 -30 30 -30 l30 0 0 95 0 95 -30 0 c-27 0 -30 3 -30
30 0 27 3 30 30 30 27 0 30 -3 30 -30 l0 -30 95 0 95 0 0 30 0 30 -65 0 -65 0
0 30 0 30 -60 0 -60 0 0 30 c0 27 -3 30 -30 30 -27 0 -30 3 -30 30 0 27 3 30
30 30 28 0 30 3 30 35 0 32 2 35 30 35 27 0 30 3 30 30 0 27 -3 30 -30 30
l-30 0 0 60 0 60 30 0 30 0 0 -60 0 -60 60 0 60 0 0 60 0 60 35 0 c33 0 35 2
35 35 0 32 2 35 30 35 27 0 30 3 30 30 0 27 3 30 30 30 l30 0 0 60 0 60 -30 0
c-27 0 -30 -3 -30 -30 0 -27 -3 -30 -30 -30 -27 0 -30 -3 -30 -30 0 -28 -3
-30 -35 -30 -32 0 -35 -2 -35 -30 0 -27 -3 -30 -30 -30 -27 0 -30 3 -30 30 0
27 -3 30 -30 30 -27 0 -30 -3 -30 -30 l0 -30 -60 0 -60 0 0 -35 0 -35 -95 0
-95 0 0 35 c0 32 -2 35 -30 35 l-30 0 0 60 0 60 30 0 c27 0 30 -3 30 -30 0
-27 3 -30 30 -30 l30 0 0 125 0 125 -95 0 -95 0 0 -35 0 -35 65 0 65 0 0 -30
0 -30 -65 0 -65 0 0 -30 0 -30 -90 0 -90 0 0 30 c0 27 3 30 30 30 27 0 30 3
30 30 0 27 -3 30 -30 30 -28 0 -30 3 -30 35 0 32 2 35 30 35 27 0 30 3 30 30
0 27 -3 30 -30 30 -27 0 -30 3 -30 30 l0 30 -65 0 -65 0 0 -30 c0 -27 -3 -30
-30 -30 l-30 0 0 60 0 60 65 0 65 0 0 35 0 35 60 0 60 0 0 -35 c0 -32 2 -35
30 -35 28 0 30 3 30 35 0 32 2 35 30 35 28 0 30 -3 30 -35 l0 -35 95 0 95 0 0
35 c0 32 2 35 30 35 27 0 30 3 30 30 0 28 3 30 35 30 32 0 35 2 35 30 0 28 -3
30 -35 30 -32 0 -35 2 -35 30 0 28 3 30 35 30 32 0 35 2 35 30 0 27 3 30 30
30 27 0 30 -3 30 -30z m560 -60 l0 -90 -95 0 -95 0 0 90 0 90 95 0 95 0 0 -90z
m620 0 c0 -27 -3 -30 -30 -30 -27 0 -30 3 -30 30 0 27 3 30 30 30 27 0 30 -3
30 -30z m310 -340 l0 -60 -30 0 c-27 0 -30 3 -30 30 0 27 -3 30 -30 30 -27 0
-30 3 -30 30 l0 30 60 0 60 0 0 -60z m-2110 -125 l0 -65 -35 0 -35 0 0 -90 0
-90 -60 0 -60 0 0 30 c0 27 3 30 30 30 27 0 30 3 30 30 0 27 -3 30 -30 30 -27
0 -30 3 -30 30 l0 30 60 0 60 0 0 65 0 65 35 0 35 0 0 -65z m240 -215 l0 -30
-90 0 -90 0 0 -35 c0 -32 2 -35 30 -35 27 0 30 -3 30 -30 0 -27 -3 -30 -30
-30 -27 0 -30 3 -30 30 0 27 -3 30 -30 30 -27 0 -30 -3 -30 -30 0 -28 -3 -30
-35 -30 -32 0 -35 -2 -35 -30 0 -27 -3 -30 -30 -30 l-30 0 0 60 0 60 65 0 65
0 0 65 0 65 120 0 120 0 0 -30z m70 -130 c0 -27 3 -30 30 -30 l30 0 0 -60 0
-60 -30 0 c-28 0 -30 -3 -30 -35 0 -33 -2 -35 -35 -35 l-35 0 0 65 0 65 35 0
c32 0 35 2 35 30 0 28 -3 30 -35 30 -32 0 -35 2 -35 30 0 28 3 30 35 30 32 0
35 -2 35 -30z m250 -60 l0 -30 -65 0 -65 0 0 30 0 30 65 0 65 0 0 -30z m-380
-125 l0 -95 -90 0 -90 0 0 95 0 95 90 0 90 0 0 -95z m1990 0 l0 -95 -90 0 -90
0 0 95 0 95 90 0 90 0 0 -95z m130 -375 l0 -30 60 0 60 0 0 -30 0 -30 -60 0
-60 0 0 -30 0 -30 -65 0 -65 0 0 -35 c0 -32 -2 -35 -30 -35 -28 0 -30 3 -30
35 0 32 2 35 30 35 27 0 30 3 30 30 0 28 3 30 35 30 32 0 35 2 35 30 0 28 -3
30 -35 30 -32 0 -35 2 -35 30 l0 30 65 0 65 0 0 -30z m-1120 -620 l0 -90 -95
0 -95 0 0 90 0 90 95 0 95 0 0 -90z m990 0 l0 -90 -90 0 -90 0 0 90 0 90 90 0
90 0 0 -90z m-1680 -250 l0 -30 95 0 95 0 0 30 c0 27 3 30 30 30 27 0 30 -3
30 -30 0 -27 -3 -30 -30 -30 -27 0 -30 -3 -30 -30 l0 -30 -95 0 -95 0 0 30 c0
27 -3 30 -30 30 -27 0 -30 -3 -30 -30 0 -27 -3 -30 -30 -30 -27 0 -30 3 -30
30 0 27 3 30 30 30 27 0 30 3 30 30 0 27 3 30 30 30 27 0 30 -3 30 -30z m500
0 c0 -27 -3 -30 -30 -30 -27 0 -30 3 -30 30 0 27 3 30 30 30 27 0 30 -3 30
-30z m1430 0 c0 -27 -3 -30 -30 -30 -27 0 -30 3 -30 30 0 27 3 30 30 30 27 0
30 -3 30 -30z"/>
<path d="M1290 2680 c0 -27 3 -30 30 -30 27 0 30 3 30 30 0 27 -3 30 -30 30
-27 0 -30 -3 -30 -30z"/>
<path d="M1410 2525 l0 -65 60 0 60 0 0 -30 c0 -28 3 -30 35 -30 32 0 35 -2
35 -30 0 -28 -3 -30 -35 -30 -32 0 -35 -2 -35 -30 0 -27 -3 -30 -30 -30 l-30
0 0 -95 0 -95 65 0 65 0 0 30 c0 27 3 30 30 30 27 0 30 3 30 30 0 27 -3 30
-30 30 -27 0 -30 -3 -30 -30 0 -28 -3 -30 -35 -30 l-35 0 0 65 0 65 95 0 95 0
0 30 c0 27 3 30 30 30 27 0 30 -3 30 -30 0 -28 3 -30 35 -30 32 0 35 2 35 30
0 27 3 30 30 30 27 0 30 -3 30 -30 0 -27 3 -30 30 -30 27 0 30 3 30 30 0 27 3
30 30 30 l30 0 0 -65 0 -65 30 0 c27 0 30 -3 30 -30 l0 -30 -90 0 -90 0 0 30
c0 27 -3 30 -30 30 -27 0 -30 -3 -30 -30 0 -28 -3 -30 -35 -30 -32 0 -35 -2
-35 -30 0 -28 3 -30 35 -30 32 0 35 -2 35 -30 l0 -30 -65 0 -65 0 0 -65 0 -65
30 0 c27 0 30 -3 30 -30 l0 -30 -60 0 -60 0 0 30 c0 27 -3 30 -30 30 -27 0
-30 -3 -30 -30 0 -27 3 -30 30 -30 27 0 30 -3 30 -30 0 -27 -3 -30 -30 -30
-27 0 -30 -3 -30 -30 0 -28 -3 -30 -35 -30 -33 0 -35 -2 -35 -35 0 -32 -2 -35
-30 -35 -28 0 -30 3 -30 35 0 32 -2 35 -30 35 -28 0 -30 -3 -30 -35 0 -32 -2
-35 -30 -35 -27 0 -30 -3 -30 -30 l0 -30 90 0 90 0 0 -30 c0 -28 3 -30 35 -30
32 0 35 -2 35 -30 0 -27 3 -30 30 -30 27 0 30 3 30 30 l0 30 155 0 155 0 0
-30 0 -30 60 0 60 0 0 30 c0 28 3 30 35 30 l35 0 0 -60 0 -60 -125 0 -125 0 0
30 0 30 -95 0 -95 0 0 -30 c0 -27 -3 -30 -30 -30 -28 0 -30 -3 -30 -35 l0 -35
-65 0 -65 0 0 -30 c0 -27 -3 -30 -30 -30 -27 0 -30 -3 -30 -30 0 -27 -3 -30
-30 -30 l-30 0 0 -65 0 -65 30 0 c28 0 30 3 30 35 0 32 2 35 30 35 l30 0 0
-65 0 -65 -30 0 c-27 0 -30 -3 -30 -30 0 -27 3 -30 30 -30 27 0 30 -3 30 -30
0 -28 3 -30 35 -30 l35 0 0 60 0 60 30 0 c27 0 30 3 30 30 l0 30 60 0 60 0 0
65 0 65 65 0 65 0 0 -65 0 -65 -30 0 c-27 0 -30 -3 -30 -30 0 -27 3 -30 30
-30 27 0 30 3 30 30 l0 30 60 0 60 0 0 35 c0 32 2 35 30 35 l30 0 0 60 0 60
-30 0 c-27 0 -30 3 -30 30 l0 30 65 0 65 0 0 35 c0 32 2 35 30 35 l30 0 0 90
0 90 30 0 30 0 0 -125 0 -125 30 0 30 0 0 -60 0 -60 -30 0 c-27 0 -30 3 -30
30 l0 30 -60 0 -60 0 0 -30 c0 -27 3 -30 30 -30 27 0 30 -3 30 -30 0 -27 -3
-30 -30 -30 -28 0 -30 -3 -30 -35 l0 -35 60 0 60 0 0 35 c0 32 2 35 30 35 27
0 30 3 30 30 0 28 3 30 35 30 l35 0 0 95 0 95 -35 0 -35 0 0 60 0 60 35 0 c32
0 35 -2 35 -30 0 -27 3 -30 30 -30 27 0 30 -3 30 -30 0 -27 3 -30 30 -30 27 0
30 3 30 30 0 27 3 30 30 30 l30 0 0 60 0 60 -30 0 c-27 0 -30 3 -30 30 0 27
-3 30 -30 30 l-30 0 0 65 0 65 -65 0 -65 0 0 95 0 95 -60 0 -60 0 0 30 c0 27
3 30 30 30 l30 0 0 60 0 60 30 0 c27 0 30 3 30 30 0 28 3 30 35 30 33 0 35 2
35 35 0 32 2 35 30 35 27 0 30 3 30 30 0 27 -3 30 -30 30 -27 0 -30 3 -30 30
0 28 -3 30 -35 30 -32 0 -35 2 -35 30 0 27 -3 30 -30 30 -27 0 -30 -3 -30 -30
0 -27 3 -30 30 -30 27 0 30 -3 30 -30 l0 -30 -60 0 -60 0 0 -125 0 -125 -30 0
-30 0 0 155 0 155 -35 0 c-32 0 -35 2 -35 30 l0 30 -90 0 -90 0 0 -30 0 -30
-95 0 -95 0 0 30 c0 27 -3 30 -30 30 -27 0 -30 -3 -30 -30 0 -27 -3 -30 -30
-30 -27 0 -30 3 -30 30 0 28 -3 30 -35 30 -33 0 -35 2 -35 35 0 32 -2 35 -30
35 -27 0 -30 3 -30 30 0 27 -3 30 -30 30 l-30 0 0 -65z m560 -155 c0 -27 -3
-30 -30 -30 -27 0 -30 3 -30 30 0 27 3 30 30 30 27 0 30 -3 30 -30z m370 -125
c0 -32 -2 -35 -30 -35 -28 0 -30 3 -30 35 0 32 2 35 30 35 28 0 30 -3 30 -35z
m-250 -185 c0 -28 3 -30 35 -30 32 0 35 -2 35 -30 0 -27 3 -30 30 -30 l30 0 0
-95 0 -95 -30 0 -30 0 0 60 0 60 -65 0 -65 0 0 95 0 95 30 0 c27 0 30 -3 30
-30z m-120 -95 l0 -65 -30 0 c-28 0 -30 3 -30 35 0 32 -2 35 -30 35 -28 0 -30
-3 -30 -35 0 -33 -2 -35 -35 -35 -33 0 -35 2 -35 35 0 33 2 35 35 35 32 0 35
2 35 30 l0 30 60 0 60 0 0 -65z m60 -185 l0 -60 -30 0 -30 0 0 60 0 60 30 0
30 0 0 -60z m-120 -95 l0 -95 -95 0 -95 0 0 95 0 95 95 0 95 0 0 -95z m430 30
l0 -65 35 0 c32 0 35 -2 35 -30 0 -27 3 -30 30 -30 27 0 30 -3 30 -30 0 -27 3
-30 30 -30 27 0 30 -3 30 -30 0 -27 -3 -30 -30 -30 -27 0 -30 3 -30 30 0 27
-3 30 -30 30 -27 0 -30 3 -30 30 0 28 -3 30 -35 30 -32 0 -35 2 -35 30 0 27
-3 30 -30 30 l-30 0 0 65 0 65 30 0 30 0 0 -65z m-740 -95 c0 -27 3 -30 30
-30 27 0 30 -3 30 -30 0 -27 -3 -30 -30 -30 -27 0 -30 3 -30 30 0 28 -3 30
-35 30 -32 0 -35 2 -35 30 0 28 3 30 35 30 32 0 35 -2 35 -30z m560 0 c0 -28
-3 -30 -35 -30 -32 0 -35 -2 -35 -30 0 -27 -3 -30 -30 -30 l-30 0 0 60 0 60
65 0 65 0 0 -30z m-310 -245 c0 -32 2 -35 30 -35 27 0 30 -3 30 -30 l0 -30 60
0 60 0 0 -60 0 -60 -30 0 c-27 0 -30 3 -30 30 0 27 -3 30 -30 30 -27 0 -30 3
-30 30 l0 30 -65 0 -65 0 0 65 0 65 35 0 c33 0 35 -2 35 -35z m-250 -125 c0
-28 -3 -30 -35 -30 -32 0 -35 2 -35 30 0 28 3 30 35 30 32 0 35 -2 35 -30z
m120 0 c0 -27 -3 -30 -30 -30 -27 0 -30 3 -30 30 0 27 3 30 30 30 27 0 30 -3
30 -30z"/>
<path d="M1780 1685 c0 -33 2 -35 35 -35 33 0 35 2 35 35 0 33 -2 35 -35 35
-33 0 -35 -2 -35 -35z"/>
<path d="M2160 2495 c0 -32 2 -35 30 -35 28 0 30 3 30 35 0 32 -2 35 -30 35
-28 0 -30 -3 -30 -35z"/>
<path d="M790 2430 c0 -27 3 -30 30 -30 27 0 30 -3 30 -30 0 -27 3 -30 30 -30
27 0 30 3 30 30 0 27 -3 30 -30 30 -27 0 -30 3 -30 30 0 27 -3 30 -30 30 -27
0 -30 -3 -30 -30z"/>
<path d="M1220 2430 c0 -28 3 -30 35 -30 32 0 35 -2 35 -30 0 -28 -3 -30 -35
-30 l-35 0 0 -95 0 -95 35 0 c32 0 35 -2 35 -30 0 -28 -3 -30 -35 -30 -32 0
-35 -2 -35 -30 0 -27 -3 -30 -30 -30 -27 0 -30 -3 -30 -30 0 -27 3 -30 30 -30
27 0 30 3 30 30 l0 30 95 0 95 0 0 30 c0 27 -3 30 -30 30 -27 0 -30 3 -30 30
0 27 3 30 30 30 l30 0 0 125 0 125 -60 0 -60 0 0 30 c0 28 -3 30 -35 30 -32 0
-35 -2 -35 -30z m130 -215 l0 -65 -30 0 -30 0 0 65 0 65 30 0 30 0 0 -65z"/>
<path d="M1040 2370 c0 -27 3 -30 30 -30 27 0 30 3 30 30 0 27 -3 30 -30 30
-27 0 -30 -3 -30 -30z"/>
<path d="M850 2245 c0 -32 2 -35 30 -35 28 0 30 3 30 35 0 32 -2 35 -30 35
-28 0 -30 -3 -30 -35z"/>
<path d="M2470 2180 c0 -27 -3 -30 -30 -30 -27 0 -30 -3 -30 -30 0 -28 -3 -30
-35 -30 -32 0 -35 -2 -35 -30 0 -28 3 -30 35 -30 32 0 35 2 35 30 0 27 3 30
30 30 27 0 30 3 30 30 0 27 3 30 30 30 l30 0 0 -60 0 -60 125 0 125 0 0 30 0
30 -95 0 -95 0 0 30 c0 27 -3 30 -30 30 -27 0 -30 3 -30 30 0 27 -3 30 -30 30
-27 0 -30 -3 -30 -30z"/>
<path d="M2410 1870 c0 -27 3 -30 30 -30 27 0 30 3 30 30 0 27 -3 30 -30 30
-27 0 -30 -3 -30 -30z"/>
<path d="M2590 1345 l0 -65 65 0 65 0 0 30 c0 28 -3 30 -35 30 -33 0 -35 2
-35 35 0 32 -2 35 -30 35 l-30 0 0 -65z"/>
<path d="M2650 1190 c0 -28 3 -30 35 -30 32 0 35 2 35 30 0 28 -3 30 -35 30
-32 0 -35 -2 -35 -30z"/>
<path d="M1720 1000 c0 -27 -3 -30 -30 -30 -27 0 -30 -3 -30 -30 0 -27 3 -30
30 -30 27 0 30 3 30 30 0 27 3 30 30 30 27 0 30 3 30 30 0 27 -3 30 -30 30
-27 0 -30 -3 -30 -30z"/>
<path d="M1780 2680 c0 -28 3 -30 35 -30 32 0 35 2 35 30 0 28 -3 30 -35 30
-32 0 -35 -2 -35 -30z"/>
<path d="M790 1685 c0 -32 2 -35 30 -35 28 0 30 3 30 35 0 32 -2 35 -30 35
-28 0 -30 -3 -30 -35z"/>
<path d="M2780 1685 c0 -32 2 -35 30 -35 28 0 30 3 30 35 0 32 -2 35 -30 35
-28 0 -30 -3 -30 -35z"/>
<path d="M1780 690 c0 -28 3 -30 35 -30 32 0 35 2 35 30 0 28 -3 30 -35 30
-32 0 -35 -2 -35 -30z"/>
<path d="M2780 690 c0 -27 3 -30 30 -30 27 0 30 3 30 30 0 27 -3 30 -30 30
-27 0 -30 -3 -30 -30z"/>
<path d="M1850 3055 l0 -35 60 0 60 0 0 35 0 35 -60 0 -60 0 0 -35z"/>
<path d="M2780 2870 l0 -220 215 0 215 0 0 220 0 220 -215 0 -215 0 0 -220z
m370 -5 l0 -155 -155 0 -155 0 0 155 0 155 155 0 155 0 0 -155z"/>
<path d="M2900 2865 l0 -95 95 0 95 0 0 95 0 95 -95 0 -95 0 0 -95z"/>
<path d="M2650 2680 c0 -28 3 -30 35 -30 32 0 35 2 35 30 0 28 -3 30 -35 30
-32 0 -35 -2 -35 -30z"/>
<path d="M410 1220 l0 -60 65 0 65 0 0 60 0 60 -65 0 -65 0 0 -60z"/>
<path d="M600 1250 c0 -27 3 -30 30 -30 27 0 30 3 30 30 0 27 -3 30 -30 30
-27 0 -30 -3 -30 -30z"/>
<path d="M410 505 l0 -215 220 0 220 0 0 215 0 215 -220 0 -220 0 0 -215z
m380 0 l0 -155 -155 0 -155 0 0 155 0 155 155 0 155 0 0 -155z"/>
<path d="M540 505 l0 -95 95 0 95 0 0 95 0 95 -95 0 -95 0 0 -95z"/>
<path d="M2720 380 c0 -27 3 -30 30 -30 27 0 30 3 30 30 0 27 -3 30 -30 30
-27 0 -30 -3 -30 -30z"/>
</g>
</svg>
