<svg width="142" height="139" viewBox="0 0 142 139" fill="none" xmlns="http://www.w3.org/2000/svg">
<g clip-path="url(#clip0)">
<path d="M97.6002 72.3C97.4002 80.2 93.9002 85.7 92.6002 87.8C91.4002 89.6 82.5002 102.9 67.1002 102.8C55.9002 102.7 48.6002 95.7 46.6002 93.8C44.7002 92 36.7002 84.3 36.6002 72.3C36.5002 56.9 49.7002 48 51.6002 46.8C53.7002 45.5 59.2002 42 67.1002 41.8C77.1002 41.6 84.1002 46.8 86.6002 48.8C87.9002 49.8 97.9002 58.5 97.6002 72.3Z" stroke="#379573" stroke-width="2" stroke-miterlimit="10"/>
<path d="M77.9001 43C84.8001 33.2 93.2001 23.9 104.4 19.1C107.1 17.9 110 17.1 113 16.6C113.5 16.5 114.6 16.2 115.1 16.3C115.7 16.5 115.7 17.4 115.7 18C115.7 19.4 115.3 20.8 114.6 22.1C113.3 24.5 111.3 26.4 109.3 28.2C106.9 30.3 104.3 32.4 101.8 34.2999C96.1001 38.5999 90.2001 42.5 84.0001 45.9C82.7001 46.6 83.9001 48.5999 85.1001 47.7999C91.3001 44.2999 97.3001 40.4 102.9 36.2C105.7 34.1 108.5 31.8 111.2 29.5C113.4 27.5 115.6 25.3 116.9 22.5C117.5 21.3 117.9 20 118 18.7C118.1 17.4 118 15.5 116.9 14.6C115.9 13.8 114.5 14.1 113.3 14.3C111.6 14.5 110 14.9 108.4 15.4C102.1 17.2 96.3001 20.6 91.3001 24.7C85.4001 29.6 80.5001 35.6 76.1001 41.9C75.1001 43.1 77.0001 44.2 77.9001 43Z" fill="#379573"/>
<path d="M97.1002 60.7001C108.2 54.8001 119.8 48.6001 132.5 47.4001C134.2 47.2001 137.8 46.8001 138.7 48.9001C139.3 50.1001 138.3 51.8001 137.7 52.9001C137 54.2001 136.2 55.4001 135.2 56.6001C131.3 61.3001 125.8 64.2001 120.2 66.3001C113.5 68.9001 106.1 71.6001 98.7002 70.8001C97.3002 70.7001 97.3002 72.9001 98.7002 73.1001C106.1 73.8001 113.5 71.2001 120.3 68.6001C126.4 66.3001 132.5 63.2001 136.8 58.1001C138.6 55.9001 140.9 52.9001 141.1 49.9001C141.3 47.3001 139.2 45.7001 136.9 45.2001C133.9 44.6001 130.7 45.2001 127.7 45.7001C124.2 46.3001 120.7 47.3001 117.4 48.5001C109.9 51.2001 102.9 54.9001 95.9002 58.6001C94.6002 59.4001 95.8002 61.3001 97.1002 60.7001Z" fill="#379573"/>
<path d="M93.2 88.5001C97.4 91.5001 101.2 95.0001 104.6 98.8001C108 102.6 111.3 106.8 112.4 111.9C112.9 114.5 113.2 117.2 113.2 119.8C113.2 120.9 113 121.9 111.8 122.1C110.7 122.3 109.5 121.9 108.5 121.4C106.4 120.4 104.8 118.7 103.3 117C101.5 114.9 99.8 112.8 98.1 110.7C94 105.8 89.9 100.8 85.8 95.9001C84.9 94.8001 83.3 96.4001 84.2 97.5001C88.4 102.6 92.6 107.6 96.8 112.7C98.7 115 100.6 117.4 102.6 119.6C104.3 121.4 106.3 123.1 108.6 123.9C110.6 124.6 113.2 124.7 114.6 122.9C116.1 121 115.3 117.6 115.1 115.4C114.8 112.5 114.3 109.6 113.1 106.9C111.9 104.3 110.1 102 108.4 99.8001C104.3 94.7001 99.5 90.3001 94.2 86.5001C93.1 85.7001 92 87.7001 93.2 88.5001Z" fill="#379573"/>
<path d="M53.5998 101.1C47.9998 108.7 41.7998 117.9 44.3998 127.9C44.8998 129.9 45.7998 132.1 47.4998 133.3C49.1998 134.5 51.3998 134.3 52.9998 133C54.7998 131.7 55.6998 129.5 56.6998 127.5C57.8998 125 59.0998 122.6 60.2998 120.1C62.8998 114.8 65.3998 109.5 66.7998 103.7C67.1998 102.3 64.9998 101.7 64.5998 103.1C62.4998 111.9 57.9998 120 53.9998 128C53.1998 129.6 51.8998 132.1 49.6998 131.8C47.7998 131.5 46.9998 128.8 46.5998 127.2C45.4998 123.1 46.1998 118.6 47.7998 114.7C49.5998 110.1 52.5998 106.1 55.4998 102.1C56.3998 101.1 54.4998 99.8999 53.5998 101.1Z" fill="#379573"/>
<path d="M36.4002 63.1999C33.7002 62.1999 30.8002 61.9999 27.9002 61.5999C25.0002 61.2999 22.2002 60.9999 19.3002 61.0999C14.3002 61.1999 9.20016 62.2999 5.20016 65.2999C2.20016 67.4999 -2.49984 72.8999 1.80016 76.1999C3.50016 77.5999 6.00016 77.9999 8.20016 78.4999C11.0002 79.0999 13.9002 79.5999 16.7002 79.8999C23.3002 80.6999 30.0002 80.6999 36.7002 79.8999C38.1002 79.6999 38.1002 77.4999 36.7002 77.5999C26.5002 78.7999 16.2002 78.1999 6.20016 75.6999C4.50016 75.2999 1.80016 74.5999 2.20016 72.2999C2.60016 70.2999 4.60016 68.3999 6.20016 67.1999C9.80016 64.4999 14.3002 63.4999 18.7002 63.3999C21.5002 63.2999 24.3002 63.4999 27.1002 63.7999C30.0002 64.0999 33.0002 64.2999 35.7002 65.2999C37.1002 65.7999 37.7002 63.6999 36.4002 63.1999Z" fill="#379573"/>
<path d="M44.3998 51.8001C36.5998 46.0001 31.1998 37.3001 29.1998 27.8001C28.6998 25.2001 28.0998 22.3001 28.5998 19.6001C28.9998 17.4001 30.3998 14.8001 32.8998 14.7001C35.5998 14.6001 37.3998 17.2001 38.3998 19.4001C39.5998 22.1001 40.4998 24.9001 41.5998 27.7001C44.0998 34.1001 46.6998 40.4001 49.2998 46.7001C49.8998 48.0001 51.7998 46.9001 51.1998 45.6001C48.3998 39.0001 45.6998 32.5001 43.1998 25.8001C41.3998 21.1001 39.6998 13.2001 33.5998 12.6001C31.0998 12.3001 28.8998 13.8001 27.5998 15.8001C25.8998 18.4001 25.9998 21.7001 26.3998 24.7001C26.9998 30.1001 28.6998 35.3001 31.2998 40.0001C34.2998 45.4001 38.3998 50.2001 43.2998 53.9001C44.4998 54.6001 45.5998 52.7001 44.3998 51.8001Z" fill="#379573"/>
<path d="M64.0002 40.3C62.9002 34.5 63.0002 28.5 64.1002 22.7C65.1002 17.4 66.9002 11.9 70.1002 7.4C71.5002 5.4 73.4002 3.6 75.7002 2.7C76.7002 2.3 77.8002 2 78.9002 2.2C80.4002 2.5 80.8002 3.5 80.9002 4.9C81.2002 10.7 80.7002 16.6 79.5002 22.3C78.2002 28.8 76.0002 35 72.9002 40.9C72.2002 42.2 74.2002 43.3 74.8002 42C77.9002 36.1 80.1002 29.8 81.5002 23.3C82.2002 20.1 82.6002 16.8 82.9002 13.5C83.1002 10.3 83.4002 6.8 82.9002 3.6C82.8002 1.2 80.5002 -0.1 78.0002 -2.04891e-07C75.3002 0.0999998 72.8002 1.5 70.9002 3.3C66.6002 7.2 64.3002 13.2 62.8002 18.6C60.8002 25.8 60.6002 33.5 61.9002 40.8C62.1002 42.3 64.3002 41.7 64.0002 40.3Z" fill="#379573"/>
<path d="M93.6999 55.4C97.9999 50.2 103.2 45.5 109.4 42.8C112.4 41.5 115.7 40.6 119 40.6C122.1 40.5 127.4 41.8 126.8 46.1C126.6 47.5 128.8 48.1 129 46.7C129.6 42.6 126.5 39.5 122.7 38.7C118.9 37.9 114.7 38.6 111.1 39.8C103.5 42.4 97.1999 47.8 92.0999 53.8C91.1999 54.9 92.7999 56.5 93.6999 55.4Z" fill="#379573"/>
<path d="M110.9 30.2C113.1 29.6 115.3 29.2 117.6 28.8C118.3 28.7 119.2 28.4 119.8 28.8C120.4 29.1 120.5 30.1 120.6 30.7C121 33.6 119.4 36.7 116.8 38C115.5 38.7 116.7 40.6 117.9 39.9C120.7 38.5 122.4 35.6 122.8 32.5C123 31 122.8 29.2 122 27.9C120.9 26.2 118.9 26.3 117.1 26.6C114.8 27 112.5 27.4 110.2 28C108.9 28.4 109.5 30.6 110.9 30.2Z" fill="#379573"/>
<path d="M97.2998 80.1C106.1 81.4 115 81.7 123.8 81C127.1 80.7 131.2 80.8 133.9 78.7C136.7 76.6 136.8 72.2 136.2 69.1C135.5 65.3 132.6 61.9 128.6 62C127.2 62 127.1 64.3 128.6 64.2C133.3 64.1 134.5 69.6 134.1 73.3C133.9 75.2 133.4 76.7 131.5 77.5C129.8 78.3 127.8 78.4 125.9 78.6C116.6 79.6 107.1 79.4 97.7998 78C96.4998 77.8 95.8998 79.9 97.2998 80.1Z" fill="#379573"/>
<path d="M95.5999 84.1999C103.2 88.5999 110.7 93.8999 119.3 96.1999C121.3 96.7999 123.3 97.0999 125.4 97.3999C127.1 97.5999 129.2 98.0999 130.8 97.1999C133.6 95.5999 133.2 90.6999 132.5 88.0999C131.6 84.3999 129.2 81.1999 126 79.1999C124.8 78.3999 123.6 80.3999 124.9 81.0999C128.1 82.9999 130.2 86.3999 130.7 90.0999C130.9 91.4999 131.1 94.6999 129.5 95.2999C128.6 95.6999 127.1 95.2999 126.2 95.1999C125 95.0999 123.8 94.8999 122.7 94.5999C113.2 92.5999 105.1 86.9999 96.8999 82.0999C95.4999 81.5999 94.3999 83.4999 95.5999 84.1999Z" fill="#379573"/>
<path d="M116.1 95.9999C117.3 97.0999 118.3 98.2999 119.2 99.6999C119.9 100.9 120.9 102.4 120.5 103.8C120.2 105 119.1 105.9 117.9 106.2C116.4 106.6 114.9 106.1 113.5 105.4C112.2 104.7 111.1 106.6 112.4 107.3C114.2 108.3 116.3 108.8 118.4 108.3C120.3 107.9 121.8 106.5 122.5 104.7C123.3 102.7 122.5 100.8 121.6 99.0999C120.6 97.2999 119.3 95.6999 117.8 94.2999C116.6 93.3999 115 94.9999 116.1 95.9999Z" fill="#379573"/>
<path d="M57.0002 124.4C57.7002 128.5 55.6002 133.2 59.3002 136.4C60.6002 137.5 62.3002 137.8 63.8002 137.2C65.4002 136.5 66.3002 134.9 67.0002 133.4C68.8002 128.9 69.8001 124 70.6001 119.2C71.4001 114.3 71.8002 109.3 71.8002 104.3C71.8002 102.9 69.5002 102.8 69.5002 104.3C69.5002 112.8 68.3002 121.2 66.0002 129.3C65.4002 131.2 63.8001 137.6 60.6001 134.7C59.4001 133.6 59.1001 131.9 59.1001 130.3C59.1001 128.2 59.5001 126.1 59.1001 124C59.0001 122.3 56.8002 122.9 57.0002 124.4Z" fill="#379573"/>
<path d="M77.0002 103C78.3002 105 78.9002 107.3 79.5002 109.7C80.0002 111.8 80.6002 114 81.2002 116.1C82.5002 120.3 84.0002 124.4 86.3002 128.2C87.4002 130.1 88.7002 131.8 90.2002 133.4C91.5002 134.8 93.2002 136.6 95.3002 136.6C99.9002 136.6 99.1002 129.8 99.1002 126.9C99.1002 123.8 99.1002 120.7 99.1002 117.7C99.1002 115.6 99.5002 112.6 97.6002 111.1C96.5002 110.2 94.9002 111.8 96.0002 112.7C97.4002 113.8 96.8002 116.6 96.8002 118.1C96.8002 120.4 96.8002 122.8 96.8002 125.1C96.8002 127.2 96.9002 129.4 96.8002 131.5C96.7002 133.3 95.9002 135.1 93.9002 133.7C90.9002 131.7 88.7002 128.1 87.1002 124.9C85.3002 121.5 84.1002 117.9 83.0002 114.2C81.8002 110.1 81.2002 105.5 78.9002 101.8C78.1002 100.6 76.2002 101.8 77.0002 103Z" fill="#379573"/>
<path d="M68.0001 125.5C68.7001 129.8 71.0001 134.3 74.5001 136.9C76.1001 138.1 78.3001 138.9 80.3001 138.3C82.5001 137.6 83.5001 135.5 84.1001 133.4C85.0001 130.6 85.7001 127.6 86.2001 124.7C86.3001 124.1 86.0001 123.5 85.4001 123.3C84.9001 123.1 84.1001 123.5 84.0001 124.1C83.6001 127 82.9001 129.8 82.0001 132.5C81.7001 133.6 81.3001 134.9 80.4001 135.6C79.7001 136.3 78.7001 136.3 77.8001 136.1C75.6001 135.5 73.9001 133.6 72.7001 131.8C71.3001 129.7 70.5001 127.4 70.1001 124.9C70.0001 124.3 69.3001 124 68.7001 124.1C68.1001 124.3 67.9001 124.9 68.0001 125.5Z" fill="#379573"/>
<path d="M44.2002 92.2C39.8002 98.6 35.4002 105.1 32.6002 112.3C31.3002 115.6 30.1002 119.3 29.9002 122.9C29.8002 125.8 30.5002 129.1 33.3002 130.5C37.3002 132.5 41.2002 129.4 44.0002 126.8C45.1002 125.8 43.5002 124.2 42.4002 125.2C40.9002 126.7 39.2002 128.3 37.0002 128.7C35.2002 129.1 33.4002 128.4 32.6002 126.6C31.1002 123.3 32.7002 118.7 33.7002 115.5C36.4002 107.4 41.3002 100.3 46.1002 93.3C46.9002 92.2 45.0002 91 44.2002 92.2Z" fill="#379573"/>
<path d="M16.8002 77.3999C13.2002 78.4999 9.80019 80.0999 7.00019 82.5999C4.60019 84.7999 2.10019 88.4999 3.50019 91.8999C5.00019 95.3999 10.0002 95.4999 13.2002 95.6999C17.7002 95.9999 22.1002 95.3999 26.2002 93.6999C30.9002 91.6999 35.3002 89.0999 39.8002 86.6999C41.1002 85.9999 39.9002 84.0999 38.7002 84.7999C34.4002 87.0999 30.2002 89.4999 25.7002 91.4999C21.2002 93.4999 16.4002 93.7999 11.5002 93.3999C9.80019 93.1999 6.90019 93.1999 5.70019 91.5999C4.50019 89.8999 5.70019 87.4999 6.80019 86.0999C9.30019 82.6999 13.3002 80.7999 17.3002 79.5999C18.8002 79.0999 18.2002 76.9999 16.8002 77.3999Z" fill="#379573"/>
<path d="M41.2 88.0001C38.1 90.8001 35.1 93.5001 32 96.3001C29.3 98.8001 26.4 101.1 23.9 103.8C21.7 106.2 19.8 108.9 19.2 112.1C18.6 115 19.1 118.4 21.5 120.4C24.2 122.6 27.9 122.2 31.2 121.8C32.6 121.6 32 119.4 30.6 119.6C27.4 120 23 120.4 21.6 116.8C20.3 113.3 22.2 109.4 24.3 106.7C26.7 103.7 29.8 101.2 32.6 98.6001C36 95.6001 39.4 92.5001 42.7 89.5001C43.9 88.6001 42.3 87.0001 41.2 88.0001Z" fill="#379573"/>
<path d="M18.6999 94.5999C17.4999 95.8999 16.5999 97.3999 15.9999 98.9999C15.3999 100.5 14.8999 102.5 15.4999 104.2C16.4999 107 19.9999 107.3 22.5999 107.2C23.1999 107.2 23.6999 106.7 23.6999 106.1C23.6999 105.5 23.1999 104.9 22.5999 105C21.4999 105.1 20.4999 105.1 19.4999 104.8C18.9999 104.7 18.6999 104.6 18.2999 104.3C18.0999 104.1 17.7999 103.8 17.6999 103.5C17.2999 102.3 17.8999 100.8 18.2999 99.6999C18.7999 98.3999 19.4999 97.2999 20.3999 96.2999C20.7999 95.7999 20.7999 95.1999 20.3999 94.6999C19.8999 94.0999 19.0999 94.0999 18.6999 94.5999Z" fill="#379573"/>
<path d="M31.1001 36.6C29.1001 32.8 26.4001 29.4 23.1001 26.7C21.6001 25.4 19.8001 24 17.9001 23.3C16.0001 22.6 14.4001 23.9 14.5001 25.9C14.6001 29.9 16.5001 34 18.6001 37.3C20.9001 41 23.8001 44.2 26.9001 47.2C30.9001 51.2 35.2001 54.9 39.4001 58.7C40.5001 59.7 42.1001 58.1 41.0001 57.1C35.0001 51.8 28.6001 46.5 23.5001 40.3C21.2001 37.5 19.1001 34.3 17.9001 30.9C17.6001 30.1 17.4001 29.3 17.2001 28.5C17.1001 28 16.5001 26.3 16.8001 25.8C17.3001 24.9 20.7001 27.7 21.4001 28.3C24.7001 30.9 27.3001 34.2 29.2001 37.9C29.8001 39 31.7001 37.9 31.1001 36.6Z" fill="#379573"/>
<path d="M21.6001 37.9999C18.2001 36.3999 14.3001 35.8999 10.6001 36.7999C9.20009 37.0999 7.20009 37.5999 6.60009 39.0999C5.90009 40.6999 7.20009 42.3999 8.10009 43.6999C12.1001 49.9999 18.2001 54.6999 25.0001 57.5999C29.2001 59.3999 33.5001 60.4999 38.0001 61.1999C39.4001 61.3999 40.0001 59.2999 38.6001 58.9999C30.4001 57.6999 22.3001 54.8999 16.0001 49.3999C13.2001 46.8999 10.5001 43.9999 8.90009 40.5999C8.30009 39.3999 10.1001 39.1999 11.0001 38.9999C12.0001 38.7999 13.0001 38.5999 14.1001 38.5999C16.3001 38.5999 18.5001 38.9999 20.5001 39.8999C21.8001 40.5999 22.9001 38.5999 21.6001 37.9999Z" fill="#379573"/>
<path d="M14.3999 48.3001C10.4999 47.5001 6.69993 50.6001 6.19993 54.4001C5.69993 58.3001 8.39993 62.1001 11.8999 63.6001C12.4999 63.8001 13.0999 63.8001 13.3999 63.2001C13.6999 62.7001 13.5999 61.9001 12.9999 61.7001C10.4999 60.5001 8.29993 58.0001 8.39993 55.0001C8.49993 52.4001 11.1999 49.9001 13.7999 50.5001C15.2999 50.8001 15.8999 48.6001 14.3999 48.3001Z" fill="#379573"/>
<path d="M42.4 21.8001C42.3 20.1001 42.5 18.4001 43 16.8001C43.4 15.5001 44.1 13.4001 45.4 12.7001C47.1 11.8001 48.2 14.1001 48.7 15.3001C49.3 17.0001 49.9 18.8001 50.5 20.5001C53 27.6001 55.4 34.8001 57.9 41.9001C58.4 43.3001 60.5 42.7001 60.1 41.3001C57.1 32.5001 54.2 23.6001 51 14.9001C50.4 13.3001 49.7 11.7001 48.1 10.9001C46.6 10.1001 45 10.2001 43.7 11.3001C40.9 13.7001 40 18.4001 40.2 21.9001C40.3 23.2001 42.5 23.3001 42.4 21.8001Z" fill="#379573"/>
<path d="M52.1999 14.9C52.3999 11.6 53.8999 7.49997 57.6999 6.99997C59.0999 6.79997 60.4999 7.19997 61.2999 8.39997C62.2999 9.79997 62.6999 11.6 64.3999 12.5C65.6999 13.2 66.7999 11.2 65.4999 10.6C64.6999 10.2 64.2999 9.29997 63.8999 8.49997C63.4999 7.69997 62.9999 6.79997 62.1999 6.19997C60.6999 4.89997 58.5999 4.59997 56.6999 4.99997C52.0999 5.99997 50.2999 10.8 49.8999 15C49.8999 16.4 52.0999 16.4 52.1999 14.9Z" fill="#379573"/>
<path d="M84.5001 11.7999C85.6001 10.6999 87.5001 10.0999 89.0001 9.99994C89.7001 9.99994 90.3001 9.99994 90.6001 10.6999C90.9001 11.4999 90.8001 12.6999 90.8001 13.5999C90.8001 17.7999 90.0001 21.8999 88.5001 25.7999C88.0001 27.1999 90.2001 27.6999 90.7001 26.3999C92.5001 21.6999 93.5001 16.2999 93.0001 11.1999C92.8001 8.89994 91.1001 7.59994 88.8001 7.79994C86.8001 7.99994 84.4001 8.69994 82.9001 10.1999C81.9001 11.1999 83.5001 12.7999 84.5001 11.7999Z" fill="#379573"/>
<path d="M92.7002 18C94.7002 16.2 97.4002 15 100.1 14.8C100.7 14.7 102.5 14.4 102.9 15.1C103.1 15.5 103.1 16.1 103.3 16.6C103.5 17.3 104 17.7 104.6 17.9C105.2 18.1 105.8 17.7 106 17.1C106.2 16.5 105.8 15.9 105.2 15.7C105.5 15.8 105.4 15.9 105.3 15.5C105.2 15.2 105.2 14.9 105.1 14.7C104.9 14 104.5 13.4 103.9 13C102.7 12.3 101 12.4 99.7002 12.6C96.5002 13 93.6002 14.3 91.1002 16.4C90.0002 17.4 91.6002 19 92.7002 18Z" fill="#379573"/>
<path d="M46.3002 77C60.6002 75.2 75.0002 74.2 89.5002 74C89.2002 73.7 88.8002 73.3 88.5002 73C88.0002 80.6 81.4002 87.5 74.7002 90.6C67.7002 93.7 59.0002 92.7 53.8002 86.8C50.9002 83.5 49.1002 79.3 46.6002 75.7C45.9002 74.6 44.1002 75.6 44.9002 76.7C47.4002 80.2 49.1002 84.2 51.9002 87.6C54.6002 90.9 58.3002 93.1 62.4002 93.9C70.6002 95.6 78.9002 92 84.4002 85.9C87.7002 82.3 90.2002 77.9 90.6002 73C90.6002 72.5 90.1002 72 89.6002 72C75.0002 72.2 60.6002 73.2 46.3002 75C45.0002 75.2 45.0002 77.2 46.3002 77Z" fill="#379573"/>
<path d="M49.8 60.7C52.7 57.9 57.4 57.4 60.8 59.4C61.9 60 62.9 58.3 61.8 57.7C57.5 55.2 51.9 55.9 48.3 59.3C47.4 60.2 48.9 61.6 49.8 60.7Z" fill="#379573"/>
<path d="M70.6999 58.4001C73.5999 56.8001 77.8999 55.3001 80.4999 58.4001C80.7999 58.8001 81.5999 58.8001 81.8999 58.4001C82.2999 58.0001 82.1999 57.4001 81.8999 57.0001C80.4999 55.4001 78.3999 54.6001 76.2999 54.6001C73.8999 54.6001 71.6999 55.6001 69.6999 56.7001C68.5999 57.3001 69.5999 59.0001 70.6999 58.4001Z" fill="#379573"/>
</g>
<defs>
<clipPath id="clip0">
<rect width="141.1" height="138.6" fill="white"/>
</clipPath>
</defs>
</svg>
