<svg width="31" height="32" viewBox="0 0 31 32" fill="none" xmlns="http://www.w3.org/2000/svg">
<circle cx="15.5" cy="15.7637" r="15.5" fill="#CC6678"/>
<path d="M26.6732 9.58331C25.9078 9.90706 25.0855 10.1258 24.2211 10.2247C25.113 9.71525 25.7803 8.91347 26.0985 7.96893C25.2605 8.44405 24.3434 8.77848 23.387 8.95768C22.7438 8.30219 21.8919 7.86772 20.9636 7.72172C20.0352 7.57573 19.0824 7.72638 18.2529 8.15028C17.4235 8.57418 16.7638 9.24763 16.3764 10.066C15.989 10.8845 15.8955 11.8021 16.1105 12.6764C14.4125 12.5951 12.7515 12.1738 11.2351 11.44C9.71874 10.7062 8.38098 9.6762 7.30862 8.41693C6.94196 9.02068 6.73113 9.72068 6.73113 10.4662C6.73072 11.1373 6.90386 11.7981 7.23518 12.3901C7.56651 12.982 8.04577 13.4867 8.63046 13.8594C7.95238 13.8388 7.28926 13.6639 6.69629 13.3493V13.4018C6.69622 14.3431 7.03732 15.2554 7.66171 15.9839C8.2861 16.7125 9.15532 17.2124 10.1219 17.3988C9.49284 17.5613 8.83335 17.5852 8.19321 17.4688C8.46591 18.2787 8.99712 18.987 9.71246 19.4944C10.4278 20.0018 11.2915 20.283 12.1825 20.2986C10.6699 21.432 8.80177 22.0469 6.87871 22.0442C6.53806 22.0443 6.19769 22.0253 5.85938 21.9873C7.81139 23.1853 10.0837 23.8212 12.4044 23.8187C20.2602 23.8187 24.5548 17.6079 24.5548 12.2214C24.5548 12.0464 24.5502 11.8697 24.542 11.6947C25.3773 11.118 26.0984 10.404 26.6714 9.58593L26.6732 9.58331Z" fill="white"/>
</svg>
